<svg xmlns="http://www.w3.org/2000/svg" width="24" height="24" viewBox="0 0 24 24" fill="none" stroke="currentColor" stroke-width="2" stroke-linecap="round" stroke-linejoin="round">
  <!-- 左大括号 { -->
  <path d="M8 3H7a2 2 0 0 0-2 2v5a2 2 0 0 1-2 2 2 2 0 0 1 2 2v5c0 1.1.9 2 2 2h1"/>
  <!-- 右大括号 } -->
  <path d="M16 21h1a2 2 0 0 0 2-2v-5a2 2 0 0 1 2-2 2 2 0 0 1-2-2V5a2 2 0 0 0-2-2h-1"/>
  <!-- 内部JSON格式化结构：三层缩进的短横线 -->
  <line x1="10" y1="8" x2="14" y2="8"/>
  <line x1="9" y1="12" x2="15" y2="12"/>
  <line x1="10" y1="16" x2="14" y2="16"/>
</svg>
